<svg id="Layer_2" data-name="Layer 2" xmlns="http://www.w3.org/2000/svg" xmlns:xlink="http://www.w3.org/1999/xlink" viewBox="0 0 960 510">
  <defs>
    <style>
      .cls-1, .cls-4, .cls-5 {
        fill: none;
      }

      .cls-2 {
        fill: #f2dbae;
      }

      .cls-3 {
        fill: #9be55c;
      }

      .cls-4, .cls-5 {
        stroke: #353b3d;
        stroke-linecap: round;
        stroke-width: 2.42px;
      }

      .cls-4 {
        stroke-linejoin: round;
      }

      .cls-5 {
        stroke-miterlimit: 10;
      }

      .cls-6 {
        fill: #353b3d;
      }

      .cls-7 {
        clip-path: url(#clip-path);
      }
    </style>
    <clipPath id="clip-path">
      <rect class="cls-1" x="-995.09" y="-185" width="585" height="878.68"/>
    </clipPath>
  </defs>
  <title>behance greencup</title>
  <rect class="cls-2" width="960" height="510"/>
  <g>
    <g>
      <circle class="cls-3" cx="484.05" cy="220.68" r="76.47"/>
      <g>
        <path class="cls-4" d="M472.34,176.19A45.82,45.82,0,0,0,438,220.54c0,25.3,20.29,45.8,47.41,45.8,0,0,.15-21.7,10.52-30.52s9.25-27.25-4.75-27.25c-5.8,0-11.73,6-11.46,12S487,230.68,489,233.43c0,0,6.51-10,4.41-14.48-1.86-4-10.59-7.78-14.58-13.68-1.59-2.37-2.73-11.31,1.57-18.49,4.1-6.85,13.93-11.31,22.49-8.54"/>
        <path class="cls-5" d="M502.87,178.24a53.44,53.44,0,0,1-19.05,103.37"/>
        <path class="cls-5" d="M483.82,281.61a61.07,61.07,0,1,1,0-122.14"/>
        <path class="cls-5" d="M483.82,296.88a68.71,68.71,0,0,0,0-137.41"/>
        <path class="cls-5" d="M483.82,296.88a76.34,76.34,0,1,1,0-152.68"/>
        <path class="cls-5" d="M483.82,312.15a84,84,0,0,0,0-167.95"/>
        <path class="cls-5" d="M483.82,312.15a91.62,91.62,0,0,1-91.61-91.61c0-45.83,32.64-83.8,80.13-90.54"/>
      </g>
    </g>
    <g>
      <path class="cls-6" d="M389.72,351.48h-8.66a2.54,2.54,0,0,0-1.83.7,2.61,2.61,0,0,0,0,3.6,2.54,2.54,0,0,0,1.83.7h5.75v7.64a13.72,13.72,0,0,1-2.9.94,17,17,0,0,1-3.7.43,12.5,12.5,0,0,1-11.09-6.43,13.86,13.86,0,0,1,0-13.19,12.5,12.5,0,0,1,11.09-6.4,14.89,14.89,0,0,1,3.4.37,13.37,13.37,0,0,1,3,1.08,3.86,3.86,0,0,0,.68.25,2.66,2.66,0,0,0,.72.1,2.13,2.13,0,0,0,1.68-.78,2.67,2.67,0,0,0,.68-1.82,2.42,2.42,0,0,0-.3-1.13,2.22,2.22,0,0,0-.95-.92A15.66,15.66,0,0,0,385,335a20.72,20.72,0,0,0-4.75-.55,18.24,18.24,0,0,0-7.11,1.38,17.79,17.79,0,0,0-5.78,3.85,18.32,18.32,0,0,0-3.88,5.73,18.48,18.48,0,0,0,0,14.11,18.32,18.32,0,0,0,3.88,5.73,17.82,17.82,0,0,0,5.78,3.86,18.42,18.42,0,0,0,7.11,1.37,19.06,19.06,0,0,0,5.73-.85,21.73,21.73,0,0,0,5-2.25,3.84,3.84,0,0,0,.9-.9,2.29,2.29,0,0,0,.4-1.35V354a2.48,2.48,0,0,0-.73-1.83A2.41,2.41,0,0,0,389.72,351.48Z"/>
      <path class="cls-6" d="M415.56,343.77a3.7,3.7,0,0,0-2.26-.7,9,9,0,0,0-5.55,1.9,9.07,9.07,0,0,0-2.7,3.37v-2.12a2.44,2.44,0,0,0-.73-1.82,2.56,2.56,0,0,0-3.58,0,2.54,2.54,0,0,0-.7,1.82v21.22a2.58,2.58,0,0,0,.7,1.83,2.58,2.58,0,0,0,3.58,0,2.48,2.48,0,0,0,.73-1.83v-12a9.51,9.51,0,0,1,.52-3.25,8.32,8.32,0,0,1,1.43-2.53,6.34,6.34,0,0,1,2-1.63,4.87,4.87,0,0,1,2.15-.55,3.79,3.79,0,0,1,1.65.33,3.41,3.41,0,0,0,1.46.32,2.27,2.27,0,0,0,1.55-.62,2.56,2.56,0,0,0,.7-2A2.11,2.11,0,0,0,415.56,343.77Z"/>
      <path class="cls-6" d="M440.24,346.75a12.65,12.65,0,0,0-3.93-2.7,11.46,11.46,0,0,0-4.63-1,11.89,11.89,0,0,0-6.08,1.68,12.56,12.56,0,0,0-4.65,4.8,15,15,0,0,0-1.78,7.53,14.05,14.05,0,0,0,1.68,6.93,12,12,0,0,0,4.75,4.76,14.45,14.45,0,0,0,7.18,1.72,12.62,12.62,0,0,0,5-1,12.16,12.16,0,0,0,3.73-2.3,2.59,2.59,0,0,0,1.1-2,2.07,2.07,0,0,0-.6-1.48,2,2,0,0,0-1.5-.62,3.06,3.06,0,0,0-1.5.45q-.6.49-1.41,1a7.29,7.29,0,0,1-2,.92,10.19,10.19,0,0,1-3,.38,8.55,8.55,0,0,1-4.35-1.13,8.22,8.22,0,0,1-3.1-3.17,8.86,8.86,0,0,1-1.07-3.41h17.38a2.55,2.55,0,0,0,1.75-.65,2.22,2.22,0,0,0,.8-1.65,13.17,13.17,0,0,0-3.75-9.13Zm-13.91,3a6.27,6.27,0,0,1,2.45-1.53,8.87,8.87,0,0,1,2.9-.48,7.52,7.52,0,0,1,3.23.73,7.25,7.25,0,0,1,2.58,2.05,5.64,5.64,0,0,1,1.2,3.08v.35H424.24a9.61,9.61,0,0,1,.38-1.43A7.78,7.78,0,0,1,426.33,349.73Z"/>
      <path class="cls-6" d="M469.77,346.75a12.42,12.42,0,0,0-3.93-2.7,11.42,11.42,0,0,0-4.63-1,11.89,11.89,0,0,0-6.08,1.68,12.56,12.56,0,0,0-4.65,4.8,15.09,15.09,0,0,0-1.78,7.53,14.05,14.05,0,0,0,1.68,6.93,12.08,12.08,0,0,0,4.75,4.76,14.48,14.48,0,0,0,7.18,1.72,12.62,12.62,0,0,0,5-1,12,12,0,0,0,3.73-2.3,2.59,2.59,0,0,0,1.1-2,2.07,2.07,0,0,0-.6-1.48,2,2,0,0,0-1.5-.62,3.06,3.06,0,0,0-1.5.45c-.4.33-.87.68-1.4,1a7.43,7.43,0,0,1-2,.92,10.22,10.22,0,0,1-3,.38,8.55,8.55,0,0,1-4.35-1.13,8.29,8.29,0,0,1-3.1-3.17,9,9,0,0,1-1.07-3.41H471a2.55,2.55,0,0,0,1.75-.65,2.22,2.22,0,0,0,.8-1.65,13.17,13.17,0,0,0-3.75-9.13Zm-13.91,3a6.35,6.35,0,0,1,2.45-1.53,8.87,8.87,0,0,1,2.9-.48,7.48,7.48,0,0,1,3.23.73A7.16,7.16,0,0,1,467,350.5a5.64,5.64,0,0,1,1.2,3.08v.35H453.77a8.53,8.53,0,0,1,.39-1.43A7.63,7.63,0,0,1,455.86,349.73Z"/>
      <path class="cls-6" d="M498.9,344.55a8.91,8.91,0,0,0-5.5-1.48,9.24,9.24,0,0,0-3.3.58,10.37,10.37,0,0,0-2.81,1.55,12.06,12.06,0,0,0-2.12,2.1c-.12.15-.22.3-.33.45v-1.53a2.47,2.47,0,0,0-.72-1.82,2.41,2.41,0,0,0-1.78-.73,2.38,2.38,0,0,0-1.8.73,2.5,2.5,0,0,0-.7,1.82v21.22a2.54,2.54,0,0,0,.7,1.83,2.41,2.41,0,0,0,1.8.72,2.44,2.44,0,0,0,1.78-.72,2.51,2.51,0,0,0,.72-1.83V354.08a6,6,0,0,1,.88-3.23,6.53,6.53,0,0,1,2.42-2.3,7.28,7.28,0,0,1,3.61-.88,5.88,5.88,0,0,1,3.43.88,4.65,4.65,0,0,1,1.72,2.3,9.82,9.82,0,0,1,.5,3.23v13.36a2.58,2.58,0,0,0,.7,1.83,2.59,2.59,0,0,0,3.58,0,2.52,2.52,0,0,0,.73-1.83V354a18.33,18.33,0,0,0-.78-5.53A7.71,7.71,0,0,0,498.9,344.55Z"/>
      <path class="cls-6" d="M535,363.56a3,3,0,0,0-1.78.33,12.8,12.8,0,0,1-3.08,1.2,13.65,13.65,0,0,1-3.32.4,14.33,14.33,0,0,1-4.93-.83,10.64,10.64,0,0,1-4-2.5,11.69,11.69,0,0,1-2.62-4.1,15.11,15.11,0,0,1-1-5.58,15,15,0,0,1,.88-5.21,11.75,11.75,0,0,1,2.53-4.07,11.12,11.12,0,0,1,3.93-2.66,13.6,13.6,0,0,1,5.13-.92,12.52,12.52,0,0,1,3.4.45,16.39,16.39,0,0,1,3,1.2,2.9,2.9,0,0,0,1.73.35,2,2,0,0,0,1.42-.85,2.66,2.66,0,0,0,.58-2.1,2.17,2.17,0,0,0-1.28-1.7,17.52,17.52,0,0,0-4.23-1.71,18.18,18.18,0,0,0-4.67-.6,18.75,18.75,0,0,0-7.11,1.33,17.44,17.44,0,0,0-5.68,3.7,16.38,16.38,0,0,0-3.75,5.66,18.7,18.7,0,0,0-1.33,7.13,19.36,19.36,0,0,0,1.43,7.65,16.16,16.16,0,0,0,3.93,5.66,17.24,17.24,0,0,0,5.7,3.5,19.21,19.21,0,0,0,6.81,1.2,16.64,16.64,0,0,0,3.15-.3,23.2,23.2,0,0,0,3-.8,15.31,15.31,0,0,0,2.75-1.2,2.33,2.33,0,0,0,1.28-1.63,2.47,2.47,0,0,0-.63-2.12A2.09,2.09,0,0,0,535,363.56Z"/>
      <path class="cls-6" d="M562.17,343.67a2.35,2.35,0,0,0-1.8.73,2.5,2.5,0,0,0-.7,1.82v13.16a6.73,6.73,0,0,1-1.56,4.86,6,6,0,0,1-4.55,1.6,5.9,5.9,0,0,1-4.48-1.6,6.81,6.81,0,0,1-1.52-4.86V346.22a2.48,2.48,0,0,0-.73-1.82,2.56,2.56,0,0,0-3.58,0,2.54,2.54,0,0,0-.7,1.82v13.16q0,5.21,2.88,8.13c1.92,2,4.63,2.93,8.13,2.93s6.27-1,8.21-2.93,2.9-4.66,2.9-8.13V346.22a2.44,2.44,0,0,0-.73-1.82A2.38,2.38,0,0,0,562.17,343.67Z"/>
      <path class="cls-6" d="M596.35,349.75A12.49,12.49,0,0,0,592,345a11.27,11.27,0,0,0-6.23-1.75,9.78,9.78,0,0,0-3.28.55,10.59,10.59,0,0,0-2.8,1.45,10.18,10.18,0,0,0-2,1.93c-.06.07-.1.14-.15.21v-1.24a2.48,2.48,0,0,0-.73-1.8,2.36,2.36,0,0,0-1.77-.75,2.33,2.33,0,0,0-1.8.75,2.53,2.53,0,0,0-.7,1.8v31.33a2.5,2.5,0,0,0,.7,1.82,2.35,2.35,0,0,0,1.8.73,2.38,2.38,0,0,0,1.77-.73,2.44,2.44,0,0,0,.73-1.82V366.59a11.73,11.73,0,0,0,1.8,1.68,11.23,11.23,0,0,0,3,1.57,10.81,10.81,0,0,0,3.61.6,11,11,0,0,0,6.1-1.75,12.46,12.46,0,0,0,4.3-4.83,15.08,15.08,0,0,0,1.61-7.08A14.79,14.79,0,0,0,596.35,349.75Zm-4.22,11.66a8.21,8.21,0,0,1-2.78,3.25,7.16,7.16,0,0,1-4.1,1.18,7.33,7.33,0,0,1-4.18-1.18,7.91,7.91,0,0,1-2.78-3.25,10.48,10.48,0,0,1-1-4.63,10.11,10.11,0,0,1,1-4.6,8,8,0,0,1,2.78-3.18,7.4,7.4,0,0,1,4.18-1.18,7.23,7.23,0,0,1,4.1,1.18,8.27,8.27,0,0,1,2.78,3.2,10,10,0,0,1,1,4.58A10.35,10.35,0,0,1,592.13,361.41Z"/>
    </g>
  </g>
  <g class="cls-7">
    <image width="3503" height="5254" transform="translate(-1477.2 -1152.73) scale(0.52)" xlink:href="../../../design/greencup/girl-logo.png"/>
  </g>
</svg>
