<svg version="1.0" xmlns="http://www.w3.org/2000/svg" width="1141.333" height="1141.333" viewBox="0 0 856 856"><path d="M502.4 20.7c-3.7 11.5-6.9 21.2-7 21.8-.2 1-5.1 15.7-6.1 18.5-.3.8-.7 1.9-.9 2.5-.6 2.6-9.6 30-10 30.7-.3.4-.7 1.6-.9 2.6-.4 2.1-6.3 20.9-7.5 23.7-1.1 2.7-9.2 27.6-9.4 28.9-.1.6-.7 2.4-1.3 4.1-1.1 2.7-15.1 45.5-15.7 48-.2.5-.6 1.7-.9 2.5-.3.8-1.3 4-2.2 7-.9 3-2 6.2-2.5 7.1-.7 1.3.7 2 7.7 4.3 4.7 1.6 9.1 2.9 9.7 3.1.6.1 1.8.5 2.6.8 2.7 1.1 10.5 3.8 12.1 4.2.9.2 9.9 3 20 6.4 34.3 11.2 36.8 12 42.6 13.1 16.9 3.3 36.6 3.1 50.3-.5 3.6-1 7-1.8 7.5-2 5-1.1 18.6-8.2 24.6-12.8 9.4-7.1 12.5-10.1 20.3-19.7 5.9-7.3 20-32.3 21-37.3.2-.7.6-2.1 1-3.2 2.2-5.9 2.7-7.2 3.1-9.3 1.2-5.3 1.4-6.4 1.9-8 .3-.9.8-3.3 1.1-5.2.3-1.9.8-4.2 1.1-5.1.5-1.7 1.5-14.8 1.6-21.4.1-4.6-.9-18.8-1.7-22.5-1.8-9.1-10.4-29.7-13.8-33.2-.7-.7-2.3-2.9-3.6-4.8-2.4-3.5-18-19-19.2-19-.3 0-1.9-1.1-3.5-2.5-7.8-6.7-22.9-13.5-50.4-22.6-15.1-5-27.9-9.2-28.5-9.3-.5-.1-8-2.5-16.5-5.3S512.5.9 511.4.6c-2-.6-2.6.7-9 20.1zm49 36.8c2.8.9 6 2 7.1 2.5 1.1.4 6.1 2 11 3.5 5 1.6 9.5 3.2 10.1 3.6.6.5 1.4.6 1.7.2.4-.3.7-.2.7.4 0 .6 1.1 1.4 2.4 1.7 4.3 1.1 17 10.2 21.8 15.6 5.4 6 9.5 14 11.3 22 1.3 5.1 1.3 23.5.1 28.6-.2 1.2-.7 3.7-1 5.5-.3 1.9-1.5 6.3-2.6 9.9-1.2 3.6-2.3 7.2-2.5 8.1-.7 3.4-7.7 17.6-11.8 23.9-8.2 12.6-16.4 19.3-30.2 24.5-4.2 1.6-22.1 2.3-27.5 1-1.4-.3-3.8-.8-5.5-1-1.6-.3-5-1.2-7.5-2s-4.9-1.6-5.5-1.7c-2.2-.5-16.7-5.7-17.2-6.2-.4-.3-1.6-.6-2.7-.6-1.2-.1-3.1-.6-4.3-1.3l-2.1-1.2 3.9-12c2.2-6.6 4.3-12.7 4.6-13.5.3-.8.7-2 .9-2.7.1-.7 1.9-6.3 3.9-12.5 4.5-13.7 4.5-13.8 4.4-14.1 0-.1.9-2.7 2.1-5.7 1.2-3 2.3-6.2 2.5-7 .4-1.8 8.3-26.4 13.6-42 2.2-6.3 3.9-11.7 4-12 0-.3 1.2-4.4 2.7-9.1 3-9.6 2.3-9.3 11.6-6.4zM229.5 46.4c-17 8.1-27.3 13-31.2 14.7-2.4 1-4.3 2.5-4.3 3.3 0 1.9 3.2 9 4.3 9.4.4.2.7 1 .7 1.7s2.8 7.1 6.2 14.2c3.4 7 6.1 13.1 6 13.5-.1.5.2.8.8.8.6 0 .9.3.8.7-.2.5 1.4 4.2 3.4 8.3 3.8 7.9 8.8 18.5 13.6 29.1 1.7 3.5 5.3 11.3 8.2 17.4 2.9 6 8.5 18 12.5 26.5s9 19.3 11.3 24c2.2 4.7 5.9 12.5 8.2 17.5 5.7 11.9 9.7 20.5 16.4 35 3 6.6 6 12.1 6.5 12.3.5.2 4.5-1.3 8.8-3.3 14.3-6.8 20.6-9.7 27.7-13 3.9-1.8 12.9-6 20-9.4 7-3.4 13.3-6.1 13.8-6.1s1.6-.7 2.4-1.5c.9-.8 2.4-1.5 3.5-1.5 1 0 1.9-.5 1.9-1 0-.6.4-1 1-1 .5 0 4.3-1.5 8.2-3.4 39.1-18.2 37.9-17.5 36.9-19.4-1.1-2-10.2-21.4-13.8-29.2-1.4-3-2.6-5.6-2.7-5.7-.2-.2-2.2.7-4.7 1.9-2.4 1.2-4.6 2.2-4.9 2.3-.7.1-10.2 4.5-12 5.6-.8.5-2.2 1.2-3 1.5-3.3 1.4-15.1 6.9-27.8 13-7.3 3.5-13.5 6.4-13.7 6.4-.2 0-3.6 1.5-7.3 3.4l-6.9 3.3-4.6-9.6c-9-18.9-15.5-32.7-17.9-38.1-2.5-5.3-10-21.3-15.8-33.5-5-10.5-11.7-24.8-14-30-1.3-2.8-5.6-11.9-9.6-20.4-4.1-8.4-7.4-15.5-7.4-15.7 0-.2-2.7-6.1-6-13s-6-13-6-13.5c0-1.5-2.2-1-9.5 2.5zm573 167.3c-3.8 1.3-7.7 2.6-8.5 2.8-.8.2-2.8.9-4.5 1.6-1.6.7-3.2 1.3-3.5 1.4-1.8.5-7.3 2.3-19.5 6.7-7.7 2.7-14.7 5.1-15.5 5.3-.8.2-4.2 1.3-7.5 2.5-9.6 3.5-28.9 10.2-30 10.4-.5.2-2.1.7-3.5 1.3-1.4.6-5.4 2-9 3.2-3.6 1.2-7.2 2.5-8 2.8-.8.3-1.9.7-2.5.8-1.6.4-16.8 5.6-19 6.5-2.7 1.1-9.9 3.5-11.7 3.9-.4.1-3.8 1.3-7.5 2.7-3.8 1.5-9.3 3.4-12.3 4.4-7.4 2.5-44.8 15.5-48.3 16.9-2.2.9-2.6 1.4-1.8 2.8.5 1 3.7 10.1 7.1 20.3 3.4 10.2 6.7 19.7 7.3 21.2 1.3 3.1 1.1 3.1 11.7-.7 5.5-2 10-3.5 12-4 .3-.1 1.2-.5 2-.8 2.3-1 45.3-15.8 47-16.2.8-.2 2.6-.8 3.9-1.3 2.4-.9 2.6-.6 6.9 11.7 2.4 6.9 4.5 13.4 4.7 14.3.2.9.9 2.6 1.5 3.7.6 1.2.7 2.8.3 3.5-.8 1.4-11.3 12.9-25.4 28.1-8.9 9.5-11.1 11.9-20.4 22-4.4 4.8-9.9 10.8-12.2 13.3-2.4 2.5-4.3 5.1-4.3 5.6 0 .6 2.7 9 6.1 18.6 3.3 9.6 6.7 19.5 7.5 22 .8 2.5 2 5.8 2.6 7.3l1.1 2.9 4.6-5c2.5-2.8 7.8-8.5 11.7-12.8 4-4.4 8.3-9.1 9.5-10.5 1.3-1.4 5.6-6 9.4-10.3 3.9-4.3 8.4-9.3 10-11 1.7-1.8 6.2-6.7 10-11 3.9-4.3 8.6-9.5 10.5-11.6l3.6-3.8 5.3 4.9c2.9 2.7 5.4 4.9 5.6 4.9.1 0 2.8 1.6 6 3.5 10.1 6 17.4 7.9 31 8 12 0 18.1-.7 21.4-2.5 1-.5 2-.7 2.3-.5.6.6 13.6-4.8 19.4-8 9.8-5.5 19.7-14.5 25-22.6 1.6-2.4 3.3-4.7 3.9-5.1.5-.4.6-.8.1-.8s-.4-.6.1-1.3c1.3-1.6 5.3-12.4 6-16.2 1.1-5.7 1.2-27 .2-32-.6-2.8-1.2-6-1.5-7.3-.6-3-3.8-12.7-10.9-32.7-7.2-20.5-9.7-27.8-10-29-.1-.6-.5-1.7-.8-2.5-.4-.8-2.5-6.9-4.7-13.5-2.3-6.6-4.4-12.7-4.7-13.5-.3-.8-.7-2-.9-2.5-.1-.6-.6-1.9-1.1-3.1l-.8-2.1-7 2.4zm-7.8 78.4c6.6 19 6.7 19.6 6.8 29.9 0 8.4-.4 11.3-2 14.7-1.1 2.4-2.3 4.3-2.7 4.3-.5 0-.8.5-.8 1.1 0 1.7-5.6 6.3-11.2 9.1-8.6 4.4-10.1 4.8-19.3 5.2-11 .5-18.6-3.7-25.9-14.4-3.1-4.5-6.4-10.7-7-13-.6-2-5.9-17.9-6.6-19.5-.5-1.1-1.4-3.8-2.1-6-.6-2.2-1.6-5-2.2-6.2-1-2.1-.5-3.7 1.1-3.9.4 0 1.4-.3 2.2-.7 2.6-1 35.3-12.4 37.5-13.1.6-.2 1.9-.6 3-1 8.4-3.2 10.1-3.8 10.5-3.8.3 0 1-.2 1.5-.4 6.9-2.5 9.1-3.1 9.8-2.5.4.4 3.8 9.5 7.4 20.2zm-374.8-18.2l-2.6.6-.2 45.5c-.1 25-.4 45.6-.6 45.8-.2.2-14.8-14.1-32.4-31.7-17.7-17.7-32.4-32.1-32.7-32.1-2.2 0-18 14.9-25.8 24.3-3.7 4.3-4.6 6-3.8 7 .6.7 15.1 15.3 32.2 32.4 17 17.1 31 31.3 31 31.6 0 .2-19.2.5-42.7.5-23.6.1-44.1.1-45.8.1-2.8.1-3 .4-3.4 4.4-.8 8.5-.3 35.4.7 37.3 1 1.8 2.6 1.9 46.1 1.9 24.8 0 45.1.2 45.1.5s-14.4 14.9-32 32.4c-20.3 20.4-31.7 32.4-31.2 33.2 2.5 4.3 16.3 18.6 24.2 25 1.9 1.6 3.7 3.2 3.8 3.6.2.5.8.8 1.4.8.6 0 14.9-13.9 31.8-30.8s31.5-31.4 32.4-32.1c1.4-1.2 1.5 2.7 1.4 43.8 0 24.8.2 45.4.5 45.8 2.3 2.2 42.3 2.1 43-.2.2-.6.3-21.1.3-45.8-.1-24.6 0-44.7.2-44.7.1 0 14.6 14.4 32.3 32 22.3 22.4 32.4 31.8 33.3 31.3 6.1-3.6 29.6-27.3 29.6-29.9 0-.2-14.3-14.7-31.9-32.4-17.5-17.6-31.6-32.2-31.2-32.3.3-.2 21-.3 45.9-.3 44.5.1 45.2.1 45.3-1.9.1-1.1.3-3.1.5-4.5 1.2-8 .3-35.4-1.1-36.8-.2-.3-20.7-.5-45.5-.4-24.7 0-45-.3-45-.7 0-.3 14.4-15 32-32.6l32-32-5.1-6.4c-7.1-8.7-23.6-24.1-25.8-24.1-.3 0-15.1 14.6-32.8 32.4L461 366.8v-60c0-30-.5-36.1-2.5-32.8-.4.7-1.1.8-1.8.2-1.3-1-32.6-1.3-36.8-.3zm-180.3 11.5c-.9 1.9-1.6 4-1.6 4.8 0 .8-.3 1.8-.7 2.2-.4.3-1.2 2.1-1.9 3.9-2.6 7.1-9.5 25.3-10.1 26.7-.3.8-.7 1.9-.9 2.5-.1.5-1.5 4.4-3.2 8.5-2.7 6.7-7.7 19.9-10.4 27.3-1.3 3.5-2.5 4.2-4.3 2.7-.8-.7-1.5-.9-1.5-.6 0 .4-1 .1-2.2-.6-1.3-.6-2.7-1.3-3.3-1.5-.5-.1-5-1.7-10-3.6-4.9-1.9-21.8-8.2-37.5-14.1s-29.8-11.3-31.5-12c-1.6-.8-4.1-1.7-5.5-2.1-1.4-.3-4.4-1.5-6.7-2.6-2.4-1-4.9-1.9-5.7-1.9-.8 0-1.8-.5-2.1-1-.3-.6-1.6-1-2.9-1-1.2 0-2.6-.4-3.1-.9-.6-.5-3-1.6-5.5-2.5-2.5-.8-9.2-3.3-15-5.6-5.8-2.3-11.2-4.3-12-4.5-.8-.2-8.8-3.2-17.8-6.6-8.9-3.4-16.4-6-16.6-5.8-.2.2-4.2 10.4-8.9 22.7-7.4 19.5-8.3 22.5-7 23.7.8.8 2.1 1.6 2.9 1.6 1.8.2 2.4.4 5.4 1.6 1.4.6 4.2 1.8 6.3 2.6 2 .9 3.7 1.4 3.7 1.1 0-.3 1.2.2 2.8 1 1.5.8 9 3.8 16.7 6.6 7.7 2.9 14.9 5.6 16 6 1.1.5 5.8 2.3 10.5 4 4.7 1.7 9.4 3.5 10.5 4 1.1.4 4.7 1.8 8 3s7.4 2.9 9.2 3.6c1.7.8 3.3 1.4 3.6 1.4.3 0 1.8.5 3.4 1.2 1.5.6 3 1.2 3.3 1.3 1.8.4 12.8 4.7 14.2 5.5 1 .6 2.6 1 3.6 1s2.2.4 2.7.8c.9.8 9.6 4.3 12 4.8 1.4.4 51.4 19.2 54.5 20.6 1.4.6 3 1.3 3.5 1.4 1.5.4 8.6 3.1 12 4.5 1.7.7 3.5 1.3 4 1.5.6.1 2.7 1 4.9 1.9 2.1.9 4.2 1.3 4.6.8.3-.4 1.9-4.2 3.5-8.3 1.5-4.1 3.3-8.9 4-10.5.7-1.7 1.8-4.4 2.4-6 .6-1.7 1.6-4.4 2.2-6 .7-1.7 1.3-3.5 1.4-4.1.2-.6.9-2.7 1.7-4.5.8-1.9 2.4-5.9 3.5-8.9 1.2-3 2.4-6.4 2.9-7.5.4-1.1.8-2.2.9-2.5.1-.3.5-1.4 1-2.5 1.3-3.3 6.9-18 7-18.5.1-.3.5-1.4.9-2.5 7.1-18 12.9-33.2 13-34 .3-.9 1-2.9 3.7-9.7 1.1-2.7.6-4.8-1.2-4.8-.9 0-6.1-1.9-27.1-10-4.2-1.7-7.9-3-8.1-3-.3 0-1.2 1.5-2.1 3.4zM244 459c-3.3 1.1-25.4 8.8-40 14-6.3 2.3-14.9 5.2-19 6.6-4.1 1.4-8.2 2.8-9 3.1-.8.3-1.9.7-2.5.8-.5.2-3.4 1.2-6.2 2.4-2.9 1.1-5.3 1.8-5.3 1.5 0-.4-.6-.2-1.2.3-.7.6-3.1 1.6-5.3 2.3-2.2.7-4.4 1.5-5 1.9-.5.3-1.5.6-2.1.7-.5.1-5.7 1.8-11.4 3.9-5.7 2.1-10.9 3.8-11.4 4-.6.1-2.4.7-4.1 1.4-1.6.7-8.2 3-14.5 5.2-6.3 2.1-16.7 5.7-23 7.9-16.1 5.8-22.3 7.9-40 14-8.5 2.9-15.6 5.4-15.8 5.6-.2.1 3.2 10.6 7.5 23.3 7.9 23.6 7.9 23.5 12.3 21.8.8-.3 9.6-3.4 19.5-6.8 9.9-3.3 18.9-6.5 20-7 1.1-.5 3.4-1.3 5-1.8 1.7-.5 9.5-3.2 17.5-6.1 8-2.8 15.2-5.3 16-5.5 2.3-.6 10.3-3.5 12.5-4.4 1.1-.5 7-2.6 13-4.6 6.1-2 11.9-4.1 13-4.5 1.1-.5 3.4-1.3 5-1.8 1.7-.6 10.2-3.6 19-6.7s16.5-5.8 17-5.9c1.9-.4 9-2.9 10-3.5.6-.3 1.5-.6 2-.7.6-.1 8.2-2.8 17-5.9 8.8-3.2 18.8-6.7 22.3-7.8 3.4-1.2 6.2-2.6 6.2-3.3 0-.6-3.4-11-7.5-23s-7.5-21.9-7.5-22.1c0-.4-1.2-.2-4 .7zm365.5 48.5c-5.8 11.9-10.5 21.9-10.5 22.4 0 .8 20.4 11.1 22.1 11.1.5 0 .9.4.9 1 0 .5.5 1 1.1 1 .6 0 7.7 3.2 15.7 7.1 8.1 4 21.9 10.7 30.7 14.9 8.8 4.3 25.5 12.4 37 18 11.6 5.6 27.8 13.5 36 17.5 8.3 4 26.2 12.8 40 19.5 23 11.2 25 12 26.2 10.4.7-1 1.3-2.4 1.3-3.1 0-.7.5-1.3 1-1.3.6 0 1-.4 1-1 0-.5 3.8-8.9 8.5-18.7 7.7-15.8 9.3-20.6 6.8-20.2-1.5.2-5.3-1.3-5.3-2.2 0-.5-.3-.8-.7-.7-.5.1-6-2.3-12.3-5.4-6.3-3.1-18.9-9.2-28-13.6-9.1-4.3-24.8-12-35-17-10.2-4.9-24.6-11.9-32-15.5-7.4-3.6-23.8-11.6-36.5-17.8-12.6-6.2-23.2-11.3-23.5-11.4-.6-.1-16.6-7.8-27.3-13.2l-6.8-3.4-10.4 21.6zm-362.1 35.3c-.9.6-16.7 35.8-17.8 39.7-.2.5-1.1 2.8-2 5-1 2.2-3.1 7.1-4.8 11-1.7 3.8-3.6 8.3-4.3 10-.8 1.6-3.9 9.1-7 16.5-3.2 7.4-6 13.9-6.3 14.5-.4.5-.8 1.8-.9 2.8-.2 1-1 2.8-1.8 4-.8 1.2-2.1 4-2.8 6.2-.8 2.2-2.4 6.2-3.7 9-1.2 2.7-2.6 5.9-3 7-.5 1.1-2 4.6-3.4 7.7-1.4 3.1-2.6 5.9-2.6 6.2 0 .6-1.2 3.4-6.6 15.3-1.3 2.8-2.4 5.4-2.4 5.7 0 .2-1.3 3.4-3 6.9-1.6 3.6-3 7.1-3 7.9 0 .8-.4 1.8-.9 2.4-.5.5-3.7 7.6-7.1 15.9-3.5 8.2-6.6 15.4-7 16-1.9 2.9-.3 4.7 6.5 7.6 3.9 1.6 7.9 3.3 9 3.8 2.4 1.1 7.6 3.3 25.3 10.9l13.3 5.7 25.7-25.3c14.1-13.9 41.2-40.6 60.1-59.3 20.9-20.6 35-33.8 35.8-33.5 1.1.5 1.2 8.4.7 45.8-.3 24.9-.7 57.5-.8 72.4-.2 14.9-.6 27.6-1 28.2-.3.6-.2 1.3.4 1.7.6.4.8 1 .5 1.6-.9 1.3-1 9.3-.2 10.6.4.6.4 1.4-.1 1.7-.6.4-.7 2.6-.3 6.9.1.4 2 1.6 4.4 2.7 5.3 2.5 40.7 17.6 46.8 20l4.6 1.9 2.3-5.7c1.3-3.1 3.8-9 5.7-13 1.8-4.1 3.3-7.6 3.3-7.8 0-.3 1-2.6 2.2-5.2 1.2-2.6 2.3-5.3 2.4-5.9.4-2.1 2.9-7.3 3.5-7.3.3 0 .6-.6.6-1.3 0-.6.7-2.8 1.5-4.7 3.1-6.7 7.3-16.5 7.4-17 .1-.8 2.2-5.6 4.9-11.6 1.4-3 2.5-5.7 2.5-5.9 0-.2 1.3-3.3 2.8-6.7 1.6-3.5 4-9 5.3-12.3 1.3-3.3 2.7-6.2 3.1-6.5.4-.3.9-1.5 1.1-2.5.2-1.1 1-3.6 1.9-5.5 3.3-7 6.8-15.1 6.8-15.5 0-.4 3.2-7.8 6-14 2.4-5.3 9.2-21.1 9.4-22 .1-.6 1-2.6 1.8-4.5.9-1.9 3.7-8.4 6.2-14.4 2.6-6 5.3-12.3 6.1-14 3.3-7.2 4.5-11 3.8-11.6-.5-.4-3.9-1.9-7.8-3.5-3.8-1.6-8.8-3.6-11-4.6-18.3-8-22.8-9.9-23.5-9.9-.6 0-5.3 9.2-5.6 10.9-.1.6-1.8 4.6-6.4 14.9-1.6 3.4-2.6 6.2-2.3 6.2.3 0 .1.6-.4 1.3-.6.6-4.1 8.4-7.8 17.2-3.7 8.8-7.5 17.6-8.3 19.5-.9 1.9-1.6 3.7-1.7 4-.1.3-.7 1.6-1.3 3-1.2 2.8-7.7 18.2-14.2 33.5-2.3 5.5-5 11.9-6.1 14.1-1 2.3-2.7 6.3-3.7 9-4 10.1-4.4 7.6-3.7-23.7.4-16.2.9-37.3 1.1-46.9.4-20.5 1.4-59.7 1.8-75.7l.2-11.1-4.5-2C361.6 592.1 349 587 348 587c-.6 0-26.6 25.6-57.8 57-31.2 31.4-57.3 57-58 57-.8 0-.9-.5-.3-1.8.8-1.4 1.8-3.9 2.6-6.2.1-.3 1.1-2.7 2.3-5.3 1.2-2.7 2.2-5 2.2-5.3 0-.2 1.2-2.9 2.7-6.1 1.5-3.2 2.7-6 2.8-6.3 0-.3.9-2.6 1.9-5 2.4-5.6 4.5-10.5 8.5-20 1.8-4.1 3.6-8.4 4.1-9.5 2.6-5.7 9.2-21.1 9.4-22 .1-.6.9-2.6 1.8-4.5s3.8-8.5 6.3-14.5c2.6-6.1 5.2-12.1 5.8-13.5.6-1.4 1.1-2.7 1.1-3 .1-.3 1.4-3.2 2.9-6.5 5-10.7 5.1-10.6-4.5-14.5-4.6-1.8-10.5-4.4-13.3-5.6-2.7-1.3-7.9-3.5-11.5-4.9-3.6-1.5-7-3.1-7.5-3.5-.6-.5-1.6-.6-2.1-.2zm314.1 28.7c-7.1 4.6-16 10.3-19.8 12.6-3.7 2.3-6.9 4.5-7.2 4.9-.3.4 3.5 7 8.5 14.6 4.9 7.7 11.2 17.5 14 21.9 2.8 4.4 8 12.5 11.5 18 3.6 5.5 6 10.2 5.4 10.4-.6.2-4.4 2.5-8.5 5.2-4 2.7-7.8 4.9-8.4 4.9-.5 0-1 .4-1 .8 0 .5-1.1 1.4-2.5 2-1.4.7-3.1 1.7-3.8 2.2-.7.6-5.5 3.9-10.7 7.3-18 11.6-32.4 29-37.5 45.1-2.8 8.9-4.4 18.8-3.8 23.9.2 1.7.3 3.9.4 4.7 0 1.2 2.8 14.8 3.4 17 .9 2.9 7.6 17.2 8.5 18 .3.3 2 2.7 3.9 5.5 1.9 2.7 5.9 7.6 9 10.8 5.5 5.8 16 13.7 18 13.7.6 0 1.1.3 1.1.8 0 .4 1.5 1.3 3.3 2 1.7.8 4.1 1.8 5.2 2.2 2.3 1 5.3 1.9 8.7 2.6 1.3.2 3.7.7 5.3 1.1 6.2 1.2 19.6.7 27-1.1 1.1-.3 3.9-1 6.2-1.6 2.3-.5 7.7-2.6 12-4.6 4.3-2.1 8-3.8 8.3-3.8.6-.2 5.1-3.1 22-14.2 7.4-4.9 13.9-9.1 14.5-9.3.5-.2 3.1-1.9 5.7-3.8 2.6-1.8 5.2-3.3 5.8-3.3.5 0 1-.5 1-1 0-.6.4-1 .9-1s5.9-3.3 12-7.4c6.1-4.1 11.1-7.1 11.1-6.8 0 .4.4.2.8-.3 1.3-1.8 7.9-6.4 8.5-5.9.2.3.7-.2 1-1.1.4-.8.2-1.5-.3-1.5s-1.2-1-1.6-2.2c-.3-1.2-1.5-3.1-2.5-4.2-1.1-1.1-1.9-2.6-1.9-3.3 0-.7-.3-1.3-.7-1.3-.5 0-2.4-2.7-4.3-6s-3.8-6-4.2-6c-.5 0-.8-.5-.8-1 0-.6-2.2-4.4-5-8.5-2.7-4.1-5-7.9-5-8.5 0-.5-.3-1-.8-1-.4 0-2.9-3.5-5.5-7.8-2.6-4.2-7.4-11.8-10.7-16.7-3.2-5-8.6-13.3-12-18.5-3.4-5.2-12.1-18.7-19.5-30-7.3-11.3-17-26.4-21.6-33.5-4.6-7.2-8.8-13.3-9.3-13.7-.7-.5-.7-.8-.1-.8.7 0 .7-.3 0-.8-1.3-.9-8.5-12-8.4-12.8 0-.4-.3-1-.8-1.3-1.3-.9-7.3-10-7.3-11.2 0-.5-.4-.9-.9-.9s-1.1-.9-1.4-2c-.3-1.1-.9-2-1.4-2-.4 0-6.6 3.8-13.8 8.5zm42 125.2c3.9 5.9 7.2 11.2 7.4 11.8.2.5.7 1.2 1 1.5.9.8 5.1 6.9 5.1 7.4 0 .3 4.9 8 10.9 17.1 6 9.1 10.6 16.5 10.2 16.5-.4 0-1.6.8-2.7 1.7-1.1 1-2.8 2.2-3.7 2.8-.9.5-7 4.5-13.6 8.7-6.6 4.3-12.5 7.8-13.1 7.8-.5 0-1 .4-1 1 0 .5-.9 1-1.9 1-1.1 0-2.2.4-2.5.9-1 1.5-13.6 3.4-19 2.7-14.2-1.6-28.4-15.9-32.7-32.9-2.7-10.8 1.2-23.4 10-32.1 3.6-3.7 18.3-14.6 19.5-14.6.2 0 4.3-2.7 9.2-6 4.9-3.3 9.1-6 9.4-6 .3 0 3.7 4.8 7.5 10.7zM812 650.1c0 .7-2.1 5.7-4.6 11.3-7.3 15.9-8.7 19-9 20.5-.1.7-.7 1.8-1.3 2.4-.6.6-1.1 1.9-1.1 2.9s-.4 1.8-1 1.8c-.5 0-1 .4-1 1 0 .5-1.1 3.3-2.4 6.2-1.3 2.9-3.4 7.5-4.6 10.3-4.3 9.5-5.6 14.8-5.4 23 .1 8.7.6 11.4 3.1 17.8 5.2 13.3 17.1 21.8 29.6 21.3 4.8-.2 6.3-.6 10-2.1 7-3.1 13.3-9.4 16.5-16.7 3.9-8.8 4.6-11.8 4.6-19.8 0-11.7.3-10.9-20.7-57-1.1-2.5-2.1-4.7-2.2-5 0-.3-1.6-3.7-3.4-7.5-1.8-3.9-3.7-8-4.2-9.3-.9-2.3-2.9-3.1-2.9-1.1z"/></svg>