<svg id="Layer_1" data-name="Layer 1" xmlns="http://www.w3.org/2000/svg" viewBox="0 0 100 100">
  <defs>
  </defs>
  <title>bg_smile</title>
  <g>
    <path class="cls-1"
      d="M95.84,39.77H66.7L87.34,19A46.37,46.37,0,0,0,77.6,9.17L56.93,30V.52A46.52,46.52,0,0,0,50,0a47.31,47.31,0,0,0-6.88.51V30L22.43,9.14A46.65,46.65,0,0,0,12.68,19L33.36,39.77H4.16a47.67,47.67,0,0,0-.49,6.81,47.16,47.16,0,0,0,.53,7.07H95.8a47.16,47.16,0,0,0,.53-7.07A47.67,47.67,0,0,0,95.84,39.77Z" />
    <rect class="cls-1" x="26.9" y="62.56" width="11.71" height="11.71" />
    <rect class="cls-1" x="59.7" y="62.56" width="11.71" height="11.71" />
    <path class="cls-1"
      d="M50,82a49.62,49.62,0,0,0-15.2,2.22A41.64,41.64,0,0,0,22,90.94V100a27.63,27.63,0,0,1,5.36-3.23,48.78,48.78,0,0,1,6.93-2.6A60,60,0,0,1,42,92.43a52.91,52.91,0,0,1,8-.62,53.59,53.59,0,0,1,10.61,1.08,55.54,55.54,0,0,1,9.92,2.94A30.47,30.47,0,0,1,78,100V90.94a41.64,41.64,0,0,0-12.85-6.77A49.54,49.54,0,0,0,50,82Z" />
  </g>
</svg>