<svg id="Layer_1" data-name="Layer 1" xmlns="http://www.w3.org/2000/svg" viewBox="0 0 100 100">
  <defs>
  </defs>
  <title>bg_smile</title>
  <g>
    <path class="cls-1"
      d="M95.86,39.78H66.7L87.36,19a46.89,46.89,0,0,0-9.74-9.85L56.93,30V.52A46.52,46.52,0,0,0,50,0a47.21,47.21,0,0,0-6.88.51V30L22.41,9.15A46.89,46.89,0,0,0,12.66,19L33.35,39.78H4.14a47.92,47.92,0,0,0-.49,6.82,47.06,47.06,0,0,0,.53,7.07H95.82a47.06,47.06,0,0,0,.53-7.07A47.92,47.92,0,0,0,95.86,39.78Z" />
    <path class="cls-1"
      d="M50,82A50,50,0,0,0,34.8,84.16a41.94,41.94,0,0,0-12.86,6.78V100a28,28,0,0,1,5.37-3.23,48.78,48.78,0,0,1,6.93-2.6A58.49,58.49,0,0,1,42,92.43a52.91,52.91,0,0,1,8-.62,53.59,53.59,0,0,1,10.61,1.08,55.41,55.41,0,0,1,9.93,2.94A30.55,30.55,0,0,1,78.06,100V90.94A41.94,41.94,0,0,0,65.2,84.16,50,50,0,0,0,50,82Z" />
    <path class="cls-1"
      d="M71.41,64.09a7.56,7.56,0,0,0-.7-.8,7,7,0,0,0-.84-.72l-4.32,4.31-4.32-4.32a6,6,0,0,0-.81.7,5.71,5.71,0,0,0-.72.84L64,68.42,59.7,72.73a5.71,5.71,0,0,0,.72.84,6,6,0,0,0,.81.7L65.55,70l4.32,4.31a7,7,0,0,0,.84-.72,7.56,7.56,0,0,0,.7-.8l-4.33-4.32Z" />
    <path class="cls-1"
      d="M38.61,64.09a6.57,6.57,0,0,0-.7-.8,5.71,5.71,0,0,0-.84-.72l-4.32,4.31-4.32-4.32a7.51,7.51,0,0,0-.81.7,7.24,7.24,0,0,0-.72.84l4.32,4.32L26.9,72.73a7.24,7.24,0,0,0,.72.84,7.51,7.51,0,0,0,.81.7L32.75,70l4.32,4.31a5.71,5.71,0,0,0,.84-.72,6.57,6.57,0,0,0,.7-.8l-4.32-4.32Z" />
  </g>
</svg>