<svg id="Layer_1" data-name="Layer 1" xmlns="http://www.w3.org/2000/svg" viewBox="0 0 100 100">
  <defs>
  </defs>
  <title>bg_smile</title>
  <g>
    <path class="cls-1"
      d="M78.85,32,61.39,38.62,68,21.16a12.71,12.71,0,0,1,7-7.3c3.56-1.45,7.39-1.13,9.85,1.33h0c2.45,2.45,2.77,6.28,1.32,9.84A12.71,12.71,0,0,1,78.85,32Z" />
    <path class="cls-1"
      d="M21.18,32l17.46,6.62L32,21.16a12.7,12.7,0,0,0-7-7.3c-3.55-1.45-7.38-1.13-9.84,1.33h0c-2.46,2.45-2.78,6.28-1.32,9.84A12.65,12.65,0,0,0,21.18,32Z" />
    <path class="cls-1"
      d="M78.85,67.89,61.39,61.27,68,78.73A12.65,12.65,0,0,0,75,86c3.56,1.46,7.39,1.14,9.85-1.32h0c2.45-2.46,2.77-6.29,1.32-9.85A12.71,12.71,0,0,0,78.85,67.89Z" />
    <path class="cls-1"
      d="M21.18,67.89l17.46-6.62L32,78.73A12.64,12.64,0,0,1,25,86c-3.55,1.46-7.38,1.14-9.84-1.32h0c-2.46-2.46-2.78-6.29-1.32-9.85A12.65,12.65,0,0,1,21.18,67.89Z" />
    <path class="cls-1"
      d="M99.47,57.45a50.42,50.42,0,0,0,.53-7.31,51.26,51.26,0,0,0-.57-7.59h-42V.53A50.42,50.42,0,0,0,50.14,0a51.26,51.26,0,0,0-7.59.57v42H.57A51.26,51.26,0,0,0,0,50.14a50.42,50.42,0,0,0,.53,7.31h42v42a51.26,51.26,0,0,0,7.59.57,50.42,50.42,0,0,0,7.31-.53v-42Z" />
  </g>
</svg>