<svg id="Layer_1" data-name="Layer 1" xmlns="http://www.w3.org/2000/svg" viewBox="0 0 100 100">
  <defs>
  </defs>
  <title>bg_smile</title>
  <g>
    <path class="cls-1"
      d="M95.84,39.77H66.7L87.34,19A46.37,46.37,0,0,0,77.6,9.17L56.93,30V.52A46.52,46.52,0,0,0,50,0a47.31,47.31,0,0,0-6.88.51V30L22.43,9.14A46.65,46.65,0,0,0,12.68,19L33.36,39.77H4.16a47.67,47.67,0,0,0-.49,6.81,47.16,47.16,0,0,0,.53,7.07H95.8a47.16,47.16,0,0,0,.53-7.07A47.67,47.67,0,0,0,95.84,39.77Z" />
    <rect class="cls-1" x="26.9" y="62.56" width="11.71" height="11.71" />
    <rect class="cls-1" x="59.7" y="62.56" width="11.71" height="11.71" />
    <path class="cls-1"
      d="M50,100a49.93,49.93,0,0,1-15.2-2.21A41.67,41.67,0,0,1,22,91V82a27.14,27.14,0,0,0,5.36,3.23,47.6,47.6,0,0,0,6.93,2.6A58.34,58.34,0,0,0,42,89.52a52.91,52.91,0,0,0,8,.62,53.59,53.59,0,0,0,10.61-1.08,55.54,55.54,0,0,0,9.92-2.94A30.15,30.15,0,0,0,78,82V91a41.67,41.67,0,0,1-12.85,6.78A49.85,49.85,0,0,1,50,100Z" />
  </g>
</svg>