<svg id="Layer_1" data-name="Layer 1" xmlns="http://www.w3.org/2000/svg" viewBox="0 0 100 100">
  <defs>
  </defs>
  <title>bg_smile</title>
  <path class="cls-1"
    d="M42.58,32.15,20.24,9.82A50.34,50.34,0,0,0,9.72,20.37L32,42.69H.53A50.32,50.32,0,0,0,0,50a51.26,51.26,0,0,0,.57,7.59H32L9.84,79.79A50.34,50.34,0,0,0,20.4,90.3L42.58,68.13V99.45A50.43,50.43,0,0,0,50,100a49.89,49.89,0,0,0,7.48-.56V68.13L79.63,90.28A50.34,50.34,0,0,0,90.18,79.76L68,57.59H99.43A51.26,51.26,0,0,0,100,50a50.32,50.32,0,0,0-.53-7.31H68L90.3,20.41A50.15,50.15,0,0,0,79.79,9.84L57.48,32.15V.56A49.89,49.89,0,0,0,50,0a50.43,50.43,0,0,0-7.42.55Z" />
</svg>